<svg width="271" height="100" viewBox="0 0 271 100" fill="none" xmlns="http://www.w3.org/2000/svg">
<path d="M220.903 0H50.0098C22.3884 0 0 22.384 0 50C0 77.616 22.3884 100 50.0098 100H220.903C248.525 100 270.913 77.616 270.913 50C270.913 22.384 248.525 0 220.903 0Z" fill="#3535F3"/>
<path d="M50.0014 7.00781C73.7447 7.00781 92.9951 26.2582 92.9951 50.0014C92.9951 73.7447 73.7447 92.9951 50.0014 92.9951C26.2582 92.9951 7.00781 73.7447 7.00781 50.0014C7.00781 26.2582 26.2582 7.00781 50.0014 7.00781Z" fill="#000093"/>
<path d="M37.346 32.8781H35.9079C33.1839 32.8781 31.6937 34.4122 31.6937 37.4764V52.2623C31.6937 56.0696 30.4038 57.404 27.3793 57.404C24.9998 57.404 23.0649 56.3653 21.5306 54.4876C21.3824 54.2918 18.2578 55.774 18.2578 59.4335C18.2578 63.3887 21.9753 65.8137 28.8695 65.8137C37.2459 65.8137 41.6645 61.6108 41.6645 52.4141V37.4764C41.6604 34.4162 40.1702 32.8781 37.346 32.8781ZM70.7395 40.0972C62.6074 40.0972 57.2034 45.2389 57.2034 52.9095C57.2034 60.5801 62.4071 65.8177 70.5913 65.8177C78.7754 65.8177 84.0752 60.7719 84.0752 52.9615C84.0792 45.2429 78.7754 40.0972 70.7395 40.0972ZM70.6393 58.5426C67.4626 58.5426 65.2834 56.2174 65.2834 52.9055C65.2834 49.5936 67.5187 47.3164 70.6393 47.3164C73.7599 47.3164 75.9953 49.6415 75.9953 52.9535C75.9953 56.1655 73.7159 58.5426 70.6393 58.5426ZM50.3293 40.3449H49.3358C46.9082 40.3449 45.0735 41.4795 45.0735 44.9433V60.7679C45.0735 64.2796 46.8601 65.3702 49.4359 65.3702H50.4294C52.857 65.3702 54.5916 64.1797 54.5916 60.7679V44.9433C54.5916 41.3837 52.9091 40.3449 50.3253 40.3449M49.7805 28.875C46.7039 28.875 44.7731 30.6049 44.7731 33.3255C44.7731 36.0462 46.756 37.824 49.9287 37.824C53.1014 37.824 54.9361 36.0941 54.9361 33.3255C54.9361 30.5569 52.9532 28.875 49.7805 28.875Z" fill="white"/>
<path d="M125.903 40.3438H104.349L102.973 46.8684H109.936L106.02 65.3968H113.93L117.845 46.8684H124.486L125.903 40.3438Z" fill="white"/>
<path d="M138.6 65.3968H146.932C147.005 62.618 146.94 60.4792 146.732 58.9805C146.528 57.4818 146.155 56.3846 145.618 55.6809C145.081 54.9773 144.311 54.4485 143.313 54.0828V54.0112C144.364 53.7687 145.385 53.3553 146.387 52.7789C147.385 52.1985 148.219 51.3994 148.888 50.3857C149.562 49.3719 149.894 48.1634 149.894 46.7601C149.894 45.4561 149.562 44.3192 148.888 43.3531C148.219 42.3871 147.245 41.6437 145.963 41.1229C144.684 40.6022 143.145 40.3438 141.342 40.3438H128.477L123.143 65.3929H131.11L132.974 56.7304H135.054C135.711 56.7304 136.28 56.8219 136.753 57.0008C137.226 57.1836 137.61 57.4301 137.903 57.7442C138.268 58.1814 138.524 58.8493 138.673 59.7557C138.817 60.6621 138.865 61.7792 138.817 63.111C138.765 63.9299 138.697 64.6932 138.596 65.3929M137.831 51.8367H133.996L135.238 46.1121H138.528C139.622 46.1121 140.464 46.2989 141.049 46.6726C141.634 47.0463 141.923 47.6704 141.923 48.5411C141.923 49.193 141.766 49.7695 141.45 50.2624C141.133 50.7593 140.668 51.145 140.059 51.4232C139.45 51.7015 138.705 51.8406 137.827 51.8406" fill="white"/>
<path d="M154.48 64.7987C156.207 65.6194 158.43 66.0338 161.152 66.0338C163.678 66.0338 165.773 65.6433 167.436 64.8704C169.099 64.0975 170.426 62.958 171.409 61.4559C172.393 59.9539 173.128 58.0813 173.612 55.8263L176.858 40.3477H168.911L165.777 55.2087C165.533 56.3243 165.245 57.2008 164.901 57.8423C164.562 58.4837 164.126 58.9499 163.59 59.2407C163.055 59.5316 162.387 59.675 161.583 59.675C160.78 59.675 160.084 59.5196 159.561 59.2009C159.037 58.8862 158.693 58.3961 158.521 57.7307C158.354 57.0654 158.374 56.2247 158.597 55.2048L161.767 40.3438H153.821L150.651 55.2048C150.139 57.5514 150.219 59.5356 150.886 61.1452C151.554 62.7548 152.749 63.97 154.476 64.7947" fill="white"/>
<path d="M199.141 46.2879L200.424 40.3438H180.091L174.734 65.3968H195.8L197.084 59.4526H184.019L184.828 55.6436H196.094L197.305 50.1328H186L186.845 46.2879H199.141Z" fill="white"/>
<path d="M236.302 64.702C234.531 63.8166 233.166 62.5642 232.215 60.9489C231.259 59.3377 230.785 57.4631 230.785 55.3254C230.785 52.3661 231.412 49.6939 232.668 47.3168C233.929 44.9358 235.664 43.0733 237.872 41.7252C240.085 40.3811 242.558 39.7031 245.297 39.7031C247.397 39.7031 249.256 40.0381 250.866 40.7042C252.48 41.3742 253.769 42.3873 254.737 43.7433C255.7 45.1033 256.282 46.7664 256.475 48.7327H248.778C248.581 47.8832 248.18 47.2291 247.565 46.7664C246.955 46.3078 246.136 46.0765 245.112 46.0765C243.887 46.0765 242.819 46.4753 241.904 47.277C240.988 48.0786 240.277 49.1595 239.775 50.5195C239.274 51.8795 239.025 53.399 239.025 55.0701C239.025 55.9675 239.193 56.7811 239.518 57.507C239.848 58.2369 240.35 58.7992 241.02 59.202C241.691 59.6009 242.518 59.8003 243.494 59.8003C244.301 59.8003 245.048 59.6368 245.73 59.3097C246.413 58.9827 246.979 58.5041 247.417 57.874C247.858 57.2438 248.139 56.478 248.26 55.5807L251.376 56.2706H243.534L244.594 51.2852H256.471L256.254 53.1039C255.933 55.7282 255.202 58.0095 254.054 59.9519C252.906 61.8942 251.36 63.3898 249.42 64.4467C247.477 65.4996 245.2 66.0301 242.582 66.0301C240.161 66.0301 238.069 65.5874 236.298 64.698" fill="white"/>
<path d="M225.49 49.6252C224.426 49.0406 223.198 48.7483 221.809 48.7483C220.709 48.7483 219.706 48.8804 218.803 49.1487C217.9 49.4209 217.057 49.8093 216.278 50.3219H216.17L217.522 46.2257H228.481L229.725 40.3438H209.747L209.647 40.6521C211.184 41.3047 212.039 43.0385 211.513 44.8723C211.425 45.1807 208.214 54.8184 208.214 54.8184H214.777C215.238 54.382 215.74 54.0496 216.282 53.8294C216.82 53.6132 217.478 53.5011 218.257 53.5011C218.891 53.5011 219.449 53.6172 219.923 53.8454C220.4 54.0777 220.762 54.426 221.006 54.8905C221.251 55.351 221.372 55.8915 221.372 56.4961C221.372 57.2289 221.223 57.8775 220.93 58.4541C220.637 59.0267 220.204 59.4711 219.63 59.7875C219.056 60.1078 218.377 60.2639 217.595 60.2639C216.567 60.2639 215.756 60.0838 215.158 59.7154C214.56 59.351 214.211 58.8385 214.114 58.1818H206.821C206.697 59.7394 207.018 61.1168 207.776 62.31C208.535 63.5072 209.719 64.4242 211.333 65.0688C212.942 65.7135 214.933 66.0338 217.306 66.0338C219.678 66.0338 221.653 65.6214 223.387 64.7925C225.121 63.9637 226.465 62.7985 227.421 61.301C228.376 59.8035 228.85 58.0777 228.85 56.1277C228.85 54.6182 228.557 53.3009 227.971 52.1797C227.385 51.0626 226.562 50.2057 225.498 49.6211" fill="white"/>
</svg>
