<svg xmlns="http://www.w3.org/2000/svg" width="48" height="47.912" viewBox="0 0 48 47.912">
  <g id="Group_625915" data-name="Group 625915" transform="translate(0 -0.828)">
    <ellipse id="Ellipse_14499" data-name="Ellipse 14499" cx="24" cy="23.956" rx="24" ry="23.956" transform="translate(0 0.828)" fill="#ff000d"/>
    <path id="Path_77743" data-name="Path 77743" d="M25.946,31.642c-.011.011-.024.022-.037.033-.06.058-.121.115-.185.166-.018.015-.038.028-.057.042-.059.046-.118.091-.179.135-.025.016-.052.03-.077.045-.057.035-.115.071-.174.1-.028.015-.056.026-.085.039-.058.028-.116.057-.175.081-.035.014-.072.025-.108.038-.053.019-.106.04-.161.056s-.089.022-.135.033-.093.026-.14.035-.119.018-.178.026c-.034,0-.068.012-.1.014-.094.009-.188.013-.281.013s-.187,0-.28-.013c-.033,0-.068-.01-.1-.014-.06-.007-.121-.014-.18-.026-.041-.008-.081-.02-.121-.03s-.1-.022-.153-.037-.079-.027-.118-.041-.1-.033-.15-.053-.068-.032-.106-.049-.1-.045-.154-.071c-.03-.015-.058-.035-.087-.051-.054-.031-.11-.062-.163-.1-.023-.015-.043-.032-.068-.048-.058-.041-.116-.081-.171-.126-.016-.012-.03-.027-.045-.04-.059-.05-.118-.1-.174-.156l0,0-5.929-5.921a2.925,2.925,0,0,1,4.141-4.132l3.854,3.847L35.51,13.758a15.906,15.906,0,1,0,3.43,4.846L25.946,31.637Z" fill="#fff"/>
  </g>
</svg>
