<svg xmlns="http://www.w3.org/2000/svg" xmlns:xlink="http://www.w3.org/1999/xlink" viewBox="0 0 32 32"><defs><style>.cls-1{fill:none;}.cls-2{clip-path:url(#clip-path);}.cls-3{fill:#d95258;}.cls-4{fill:#fff;}.cls-5{fill:#e4853c;isolation:isolate;opacity:0.1;}</style><clipPath id="clip-path" transform="translate(0)"><path class="cls-1" d="M16,0h0A16,16,0,0,1,32,16h0A16,16,0,0,1,16,32h0A16,16,0,0,1,0,16H0A16,16,0,0,1,16,0Z"/></clipPath></defs><g id="Layer_2" data-name="Layer 2"><g id="Layer_1-2" data-name="Layer 1"><g id="ic_jiotv" data-name="ic jiotv"><g class="cls-2"><g id="Mask_Group_137205" data-name="Mask Group 137205"><g id="ic_jiocloud" data-name="ic jiocloud"><rect id="Rectangle_9857" data-name="Rectangle 9857" class="cls-3" width="32" height="32" rx="6.4"/><g id="Group_3" data-name="Group 3"><path id="Path_2" data-name="Path 2" class="cls-4" d="M20.91,12.91a3.21,3.21,0,0,1,.69-.05,4.87,4.87,0,0,1,.1,9.73H9.53a4,4,0,0,1-4-4,4,4,0,0,1,3.58-3.95,6.1,6.1,0,0,1,6.1-5.55A6.22,6.22,0,0,1,20.91,12.91Z" transform="translate(0)"/></g><rect id="Rectangle_9858" data-name="Rectangle 9858" class="cls-5" width="32" height="32" rx="6.4"/></g></g></g></g></g></g></svg>