<?xml version="1.0" encoding="utf-8"?>
<!-- Generator: Adobe Illustrator 16.0.0, SVG Export Plug-In . SVG Version: 6.00 Build 0)  -->
<!DOCTYPE svg PUBLIC "-//W3C//DTD SVG 1.1//EN" "http://www.w3.org/Graphics/SVG/1.1/DTD/svg11.dtd">
<svg version="1.1" id="Layer_1" xmlns="http://www.w3.org/2000/svg" xmlns:xlink="http://www.w3.org/1999/xlink" x="0px" y="0px"
	 width="980px" height="980px" viewBox="0 0 980 980" enable-background="new 0 0 980 980" xml:space="preserve">
<path fill-rule="evenodd" clip-rule="evenodd" fill="#E31E24" d="M490,980c269.883,0,490-220.118,490-490
	C980,220.117,759.883,0,490,0C220.118,0,0,220.117,0,490C0,759.882,220.118,980,490,980z"/>
<g>
	<path fill-rule="evenodd" clip-rule="evenodd" fill="#FFFEFE" d="M375.566,337.262c-28.495,3.164-68.07,0.394-97.751,0.394
		c-39.969,0.396-40.366,24.933-37.198,61.34c5.539,62.528,11.08,124.267,16.225,186.398c2.771,30.078,5.539,60.552,7.916,90.231
		c2.375,28.887-0.396,66.879,22.556,77.962c14.247,6.726,248.136,3.561,296.021,3.561c147.612,0,122.681,27.703,139.304-163.442
		c5.541-61.737,11.083-123.477,16.227-185.21c7.519-86.274-5.541-70.444-125.849-70.444
		C607.477,183.71,383.481,181.731,375.566,337.262z"/>
	<path fill-rule="evenodd" clip-rule="evenodd" fill="#F2000F" d="M562.758,504.662c-73.612,20.975-52.241,142.07,39.967,119.517
		C680.293,605.183,654.57,478.937,562.758,504.662z"/>
	<path fill-rule="evenodd" clip-rule="evenodd" fill="#F2000F" d="M342.719,571.939c-3.562,5.145-23.746,24.932-1.979,43.533
		c9.102,7.914,103.29,42.343,103.29-62.527c0-49.075,9.104-97.355-34.825-84.693c-29.287,8.313-0.793,93.79-18.996,112.395
		C374.775,596.079,351.821,575.105,342.719,571.939z"/>
	<path fill-rule="evenodd" clip-rule="evenodd" fill="#F2000F" d="M428.2,337.656l131.786,0.396
		C556.03,248.613,433.741,247.821,428.2,337.656z"/>
	<path fill-rule="evenodd" clip-rule="evenodd" fill="#F2000F" d="M500.228,621.801c9.498-16.618,7.915-102.891,2.771-111.205
		c-6.333-9.496-25.723-9.496-34.432-4.352c-13.455,8.31-8.31,55.405-8.31,74.009C460.256,616.658,460.256,630.114,500.228,621.801z"
		/>
	<path fill-rule="evenodd" clip-rule="evenodd" fill="#FFFEFE" d="M576.208,538.697c-34.032,11.869-17.806,62.13,16.626,51.053
		C621.327,580.253,610.64,526.823,576.208,538.697z"/>
	<path fill-rule="evenodd" clip-rule="evenodd" fill="#F2000F" d="M470.15,452.027c-26.515,14.642-2.375,50.656,26.515,36.013
		C521.994,475.771,502.207,434.218,470.15,452.027z"/>
</g>
<path display="none" fill-rule="evenodd" clip-rule="evenodd" fill="none" stroke="#FFFFFF" stroke-width="2.556" stroke-linecap="round" stroke-miterlimit="10" d="
	M874.295,490.006c0,212.241-172.056,384.289-384.301,384.289c-212.23,0-384.287-172.048-384.287-384.289
	s172.057-384.289,384.287-384.289C702.239,105.717,874.295,277.765,874.295,490.006z"/>
</svg>
