<svg xmlns="http://www.w3.org/2000/svg" viewBox="0 0 32 32"><defs><style>.cls-1{fill:#56bceb;}.cls-2{fill:#fff;}</style></defs><g id="Layer_2" data-name="Layer 2"><g id="Layer_1-2" data-name="Layer 1"><g id="Group_121200" data-name="Group 121200"><path id="Path_85856" data-name="Path 85856" class="cls-1" d="M16.09,0A16,16,0,1,1,0,16,16,16,0,0,1,16.09,0h0"/><path id="Path_85857" data-name="Path 85857" class="cls-2" d="M10.94,18.64A5.75,5.75,0,0,0,14,21.25a9,9,0,0,1-.89-2.61Z"/><path id="Path_85858" data-name="Path 85858" class="cls-2" d="M12.83,15.9a13.49,13.49,0,0,1,.07-1.44H10.43a5.86,5.86,0,0,0-.18,1.44,5.12,5.12,0,0,0,.22,1.56h2.47a11.46,11.46,0,0,1-.11-1.56"/><path id="Path_85859" data-name="Path 85859" class="cls-2" d="M17.15,11.59c-.38-.85-.85-1.38-1.23-1.38s-.86.53-1.22,1.38a7.88,7.88,0,0,0-.51,1.67h3.49a13.51,13.51,0,0,0-.53-1.67"/><path id="Path_85860" data-name="Path 85860" class="cls-2" d="M14.68,20.2c.38.85.84,1.38,1.22,1.38s.87-.53,1.23-1.38a9.13,9.13,0,0,0,.49-1.56H14.19a8.32,8.32,0,0,0,.49,1.56"/><path id="Path_85861" data-name="Path 85861" class="cls-2" d="M14,10.56a5.83,5.83,0,0,0-3.12,2.72h2.2A9,9,0,0,1,14,10.56"/><path id="Path_85862" data-name="Path 85862" class="cls-2" d="M19,15.9a10.06,10.06,0,0,1-.09,1.56h2.48a6.25,6.25,0,0,0,.22-1.56,5.86,5.86,0,0,0-.18-1.44H18.91c0,.46.06.93.06,1.44"/><path id="Path_85863" data-name="Path 85863" class="cls-2" d="M17.84,14.46H14a13.49,13.49,0,0,0-.07,1.44A13.34,13.34,0,0,0,14,17.46h3.83a13.34,13.34,0,0,0,.09-1.56c0-.49-.05-1-.09-1.44"/><path id="Path_85864" data-name="Path 85864" class="cls-2" d="M26.79,14.84,22.38,7.2a2.3,2.3,0,0,0-2-1.14H11.58a2.26,2.26,0,0,0-2,1.14L5.19,14.84a2.3,2.3,0,0,0,0,2.27L9.6,24.74a2.3,2.3,0,0,0,2,1.14H20.4a2.24,2.24,0,0,0,2-1.14l4.41-7.63a2.27,2.27,0,0,0,0-2.27m-4.59,3.8h0a6.86,6.86,0,0,1-12.58,0h0v0a6.86,6.86,0,1,1,13.16-2.71,6.28,6.28,0,0,1-.56,2.73"/><path id="Path_85865" data-name="Path 85865" class="cls-2" d="M17.84,10.56a9.28,9.28,0,0,1,.91,2.72H21a5.65,5.65,0,0,0-3.11-2.72"/><path id="Path_85866" data-name="Path 85866" class="cls-2" d="M17.84,21.25a5.79,5.79,0,0,0,3.05-2.61H18.73a9.59,9.59,0,0,1-.89,2.61"/></g></g></g></svg>