<svg xmlns="http://www.w3.org/2000/svg" xmlns:xlink="http://www.w3.org/1999/xlink" viewBox="0 0 31.97 31.95"><defs><style>.cls-1{fill:url(#linear-gradient);}.cls-11,.cls-2{fill:none;}.cls-3{clip-path:url(#clip-path);}.cls-4{clip-path:url(#clip-path-3);}.cls-5{fill:url(#radial-gradient);}.cls-6{clip-path:url(#clip-path-4);}.cls-7{fill:url(#linear-gradient-2);}.cls-8{fill:#6cbbab;}.cls-9{fill:#fff;}.cls-10{fill:#4b9a85;}.cls-11{stroke:#fff;stroke-miterlimit:10;stroke-width:0.34px;}.cls-12{mask:url(#mask);}.cls-13{fill:url(#linear-gradient-3);}</style><linearGradient id="linear-gradient" x1="78" y1="-422" x2="78.1" y2="-422" gradientTransform="translate(-25271.02 136742.82) scale(324)" gradientUnits="userSpaceOnUse"><stop offset="0" stop-color="#4d4d4d"/><stop offset="0.04" stop-color="#404040"/><stop offset="0.15" stop-color="#292929"/><stop offset="0.27" stop-color="#161616"/><stop offset="0.41" stop-color="#0a0a0a"/><stop offset="0.6" stop-color="#020202"/><stop offset="1"/></linearGradient><clipPath id="clip-path" transform="translate(-0.03 0)"><rect class="cls-2" width="32" height="32"/></clipPath><clipPath id="clip-path-3" transform="translate(-0.03 0)"><path class="cls-2" d="M14.79,0A16,16,0,1,0,32,16.86V15.05A16,16,0,0,0,17.26,0Z"/></clipPath><radialGradient id="radial-gradient" cx="76.85" cy="-420.14" r="0.1" gradientTransform="translate(-12434.29 68078.25) scale(162)" gradientUnits="userSpaceOnUse"><stop offset="0" stop-color="#000f92"/><stop offset="1" stop-color="#1b5cf4"/></radialGradient><clipPath id="clip-path-4" transform="translate(-0.03 0)"><path class="cls-2" d="M8.27,10.65a.94.94,0,0,0-.89,1V23a1.91,1.91,0,0,0,1.81,2H23.13a1.91,1.91,0,0,0,1.81-2V11.63a.94.94,0,0,0-.89-1Z"/></clipPath><linearGradient id="linear-gradient-2" x1="82.73" y1="-422.59" x2="82.83" y2="-422.59" gradientTransform="translate(-75112.03 -11967.7) rotate(90) scale(144.78 177.78)" gradientUnits="userSpaceOnUse"><stop offset="0" stop-color="#6cbbab"/><stop offset="0.39" stop-color="#5ca696"/><stop offset="1" stop-color="#3e7d6e"/></linearGradient><mask id="mask" x="0" y="0" width="31.97" height="31.95" maskUnits="userSpaceOnUse"><g transform="translate(-0.03 0)"><rect class="cls-1" x="0.03" width="31.97" height="31.95"/></g></mask><linearGradient id="linear-gradient-3" x1="78" y1="-422" x2="78.1" y2="-422" gradientTransform="translate(-25271.04 136742.83) scale(324)" gradientUnits="userSpaceOnUse"><stop offset="0" stop-color="#fff"/><stop offset="0.04" stop-color="#fff"/><stop offset="0.15" stop-color="#fff"/><stop offset="0.27" stop-color="#fff"/><stop offset="0.41" stop-color="#fff"/><stop offset="0.6" stop-color="#fff"/><stop offset="1" stop-color="#fff"/></linearGradient></defs><g id="Layer_2" data-name="Layer 2"><g id="Layer_1-2" data-name="Layer 1"><g class="cls-3"><g class="cls-3"><g class="cls-4"><rect class="cls-5" width="31.97" height="31.95"/></g><g class="cls-6"><rect class="cls-7" x="7.36" y="10.65" width="17.56" height="14.3"/></g><g class="cls-3"><polygon class="cls-8" points="10.69 6.82 12.77 6.82 9.69 13.39 5.08 13.39 10.69 6.82"/><polygon class="cls-8" points="21.57 6.82 19.5 6.82 22.57 13.39 27.19 13.39 21.57 6.82"/><polygon class="cls-9" points="19.87 6.82 17.21 6.82 18.06 13.39 22.95 13.39 19.87 6.82"/><polygon class="cls-9" points="12.46 6.82 15.12 6.82 14.27 13.39 9.38 13.39 12.46 6.82"/><polygon class="cls-8" points="14.8 6.82 17.53 6.82 18.38 13.39 13.95 13.39 14.8 6.82"/><path class="cls-8" d="M4.94,13.35a2.48,2.48,0,0,0,2.52,2.27,2.3,2.3,0,0,0,2.28-2.29Z" transform="translate(-0.03 0)"/><path class="cls-8" d="M14,13.33a2.22,2.22,0,0,0,4.44.17v-.17Z" transform="translate(-0.03 0)"/><path class="cls-8" d="M22.66,13.33a2.3,2.3,0,0,0,2.3,2.3,2.22,2.22,0,0,0,2.2-2.3Z" transform="translate(-0.03 0)"/><path class="cls-9" d="M9.43,13.33a2.3,2.3,0,1,0,4.59,0Z" transform="translate(-0.03 0)"/><path class="cls-9" d="M18.37,13.33a2.29,2.29,0,1,0,4.58,0Z" transform="translate(-0.03 0)"/><path class="cls-10" d="M11.42,5h9.47a1,1,0,0,1,1,1V7H10.41V6a1,1,0,0,1,1-1Z" transform="translate(-0.03 0)"/><path class="cls-11" d="M19.14,26.11a.86.86,0,0,1-.79.91H14a.85.85,0,0,1-.79-.91V17.48a.85.85,0,0,1,.79-.91h4.33a.85.85,0,0,1,.78.91Z" transform="translate(-0.03 0)"/><path class="cls-9" d="M16.22,25a.54.54,0,1,0,.53.54.54.54,0,0,0-.53-.54" transform="translate(-0.03 0)"/></g><g class="cls-4"><g class="cls-12"><rect class="cls-13" width="31.97" height="31.95"/></g></g></g></g></g></g></svg>