<svg width="32" height="32" viewBox="0 0 32 32" fill="none" xmlns="http://www.w3.org/2000/svg">
<path d="M0 16C0 24.8366 7.16344 32 16 32C24.8366 32 32 24.8366 32 16C32 7.16344 24.8366 0 16 0C7.16344 0 0 7.16344 0 16Z" fill="#1ECCB0"/>
<path d="M13.8398 25.0701C13.2273 24.0708 12.4175 23.2069 11.4598 22.5311C10.5021 21.8554 9.41663 21.3821 8.26979 21.1401H8.17979C8.0737 21.1401 7.97196 21.1823 7.89694 21.2573C7.82193 21.3323 7.77979 21.4341 7.77979 21.5401C7.78049 21.6266 7.80849 21.7106 7.85979 21.7801C9.20058 23.681 11.1581 25.059 13.3998 25.6801H13.4998C13.5523 25.6801 13.6043 25.6698 13.6529 25.6497C13.7014 25.6296 13.7455 25.6001 13.7826 25.563C13.8198 25.5258 13.8492 25.4817 13.8693 25.4332C13.8894 25.3847 13.8998 25.3327 13.8998 25.2801C13.8891 25.2078 13.8689 25.1372 13.8398 25.0701Z" fill="white"/>
<path d="M25.6498 13.33C25.6546 13.2901 25.6546 13.2498 25.6498 13.21C25.1308 11.4463 24.1356 9.85979 22.7737 8.62486C21.4117 7.38993 19.7357 6.55436 17.9298 6.20996H17.8598C17.7537 6.20996 17.652 6.2521 17.577 6.32712C17.5019 6.40213 17.4598 6.50387 17.4598 6.60996V6.67996C18.3686 12.1771 17.7672 17.818 15.7198 23C15.69 23.0737 15.6388 23.1369 15.5729 23.1814C15.507 23.2259 15.4293 23.2498 15.3498 23.25C15.2977 23.2513 15.246 23.2422 15.1975 23.2232C15.149 23.2042 15.1048 23.1757 15.0675 23.1393C15.0303 23.103 15.0006 23.0595 14.9804 23.0116C14.9602 22.9636 14.9498 22.912 14.9498 22.86C14.9498 22.86 14.8898 22.2 14.8498 21.86C14.2981 17.0786 12.8494 12.4443 10.5798 8.19996C10.5576 8.14641 10.5242 8.09818 10.482 8.05846C10.4398 8.01874 10.3896 7.98843 10.3348 7.96953C10.28 7.95063 10.2218 7.94357 10.164 7.94881C10.1063 7.95406 10.0503 7.97149 9.9998 7.99996C8.5875 9.08034 7.48679 10.5157 6.8098 12.16C6.77751 12.2493 6.77569 12.3468 6.80464 12.4372C6.83358 12.5277 6.89166 12.606 6.9698 12.66C9.1693 14.0102 10.9971 15.888 12.2875 18.1231C13.578 20.3582 14.2902 22.88 14.3598 25.46C14.3634 25.5556 14.4004 25.6469 14.4644 25.7182C14.5283 25.7894 14.6151 25.836 14.7098 25.85C14.9498 25.85 15.1798 25.91 15.4198 25.92C15.5131 25.9191 15.6031 25.8856 15.6743 25.8253C15.7456 25.7651 15.7935 25.6818 15.8098 25.59C16.2914 22.9527 17.4195 20.4761 19.0931 18.3819C20.7667 16.2876 22.9337 14.6412 25.3998 13.59C25.4607 13.5724 25.5158 13.5392 25.5597 13.4935C25.6036 13.4479 25.6347 13.3915 25.6498 13.33Z" fill="white"/>
<path d="M24.6896 20.92C24.6896 20.8139 24.6475 20.7122 24.5725 20.6372C24.4975 20.5622 24.3957 20.52 24.2896 20.52H24.1996C21.1048 21.1926 18.328 22.8911 16.3196 25.34C16.259 25.4129 16.2271 25.5053 16.2296 25.6C16.2296 25.7061 16.2718 25.8078 16.3468 25.8829C16.4218 25.9579 16.5236 26 16.6296 26C18.2603 25.9019 19.842 25.4058 21.2366 24.5551C22.6312 23.7044 23.7962 22.525 24.6296 21.12C24.6662 21.0595 24.6868 20.9907 24.6896 20.92Z" fill="white"/>
</svg>
